<svg xmlns="http://www.w3.org/2000/svg" viewBox="0 0 512 512">
  <defs>
    <linearGradient id="g" x1="0%" y1="0%" x2="100%" y2="100%">
      <stop offset="0%" stop-color="#6366f1" />
      <stop offset="100%" stop-color="#c026d3" />
    </linearGradient>
  </defs>
  <rect width="464" height="464" x="24" y="24" rx="100" fill="#0f111a" stroke="url(#g)" stroke-width="48" />
  <g transform="translate(122, 102) scale(0.6)">
    <path fill="url(#g)" d="M394.8 136H300.9l20.4-106.3C323.5 16.3 313.2 0 299.7 0h-35.9c-14.7 0-27.4 10.4-29.6 24.8L212.8 136H137.9l20.4-106.3C160.5 16.3 150.2 0 136.7 0H100.8c-14.7 0-27.4 10.4-29.6 24.8L49.8 136H16c-8.8 0-16 7.2-16 16v32c0 8.8 7.2 16 16 16h29.5l-20.9 108.9H-1c-8.8 0-16 7.2-16 16v32c0 8.8 7.2 16 16 16h21.2l-22.1 114.7C-4.1 495.7 6.2 512 19.7 512h35.9c14.7 0 27.4-10.4 29.6-24.8L108.6 376h74.9l-20.4 106.3C160.9 495.7 171.2 512 184.7 512h35.9c14.7 0 27.4-10.4 29.6-24.8L271.6 376h88.6c8.8 0 16-7.2 16-16v-32c0-8.8-7.2-16-16-16h-84.3l20.9-108.9H394c8.8 0 16-7.2 16-16v-32c0-8.8-7.2-16-16-16zm-177.3 172.9h-74.9l20.9-108.9h74.9l-20.9 108.9z"/>
  </g>
</svg>
